<svg width="24" height="24" viewBox="0 0 24 24" fill="none" xmlns="http://www.w3.org/2000/svg">
<path d="M22.0576 6.9449C21.9381 6.50093 21.7041 6.09614 21.3789 5.77103C21.0538 5.44592 20.649 5.2119 20.2051 5.0924C18.5701 4.6499 12.0001 4.6499 12.0001 4.6499C12.0001 4.6499 5.43008 4.6499 3.79508 5.0924C3.35111 5.2119 2.94631 5.44592 2.6212 5.77103C2.29609 6.09614 2.06208 6.50093 1.94258 6.9449C1.63729 8.61235 1.48914 10.3048 1.50008 11.9999C1.48914 13.695 1.63729 15.3875 1.94258 17.0549C2.06208 17.4989 2.29609 17.9037 2.6212 18.2288C2.94631 18.5539 3.35111 18.7879 3.79508 18.9074C5.43008 19.3499 12.0001 19.3499 12.0001 19.3499C12.0001 19.3499 18.5701 19.3499 20.2051 18.9074C20.649 18.7879 21.0538 18.5539 21.3789 18.2288C21.7041 17.9037 21.9381 17.4989 22.0576 17.0549C22.3629 15.3875 22.511 13.695 22.5001 11.9999C22.511 10.3048 22.3629 8.61235 22.0576 6.9449ZM9.90008 15.1499V8.8499L15.3526 11.9999L9.90008 15.1499Z" fill="white"/>
</svg>
